<?xml version="1.0" encoding="UTF-8" standalone="no"?>
<svg
   xmlns:dc="http://purl.org/dc/elements/1.1/"
   xmlns:cc="http://creativecommons.org/ns#"
   xmlns:rdf="http://www.w3.org/1999/02/22-rdf-syntax-ns#"
   xmlns:svg="http://www.w3.org/2000/svg"
   xmlns="http://www.w3.org/2000/svg"
   viewBox="0 0 744.09998 350.69501"
   height="350.69501"
   width="744.09998"
   xml:space="preserve"
   version="1.1"
   id="svg2"><metadata
     id="metadata8"><rdf:RDF><cc:Work
         rdf:about=""><dc:format>image/svg+xml</dc:format><dc:type
           rdf:resource="http://purl.org/dc/dcmitype/StillImage" /></cc:Work></rdf:RDF></metadata><defs
     id="defs6"><clipPath
       id="clipPath20"
       clipPathUnits="userSpaceOnUse"><path
         id="path22"
         d="m 0,280.556 595.28,0 L 595.28,0 0,0 0,280.556 Z" /></clipPath><clipPath
       id="clipPath80"
       clipPathUnits="userSpaceOnUse"><path
         id="path82"
         d="m 317.603,212.348 35,0 0,23 -35,0 0,-23 z" /></clipPath><clipPath
       id="clipPath96"
       clipPathUnits="userSpaceOnUse"><path
         id="path98"
         d="m 253.886,14.336 37,0 0,23 -37,0 0,-23 z" /></clipPath><clipPath
       id="clipPath112"
       clipPathUnits="userSpaceOnUse"><path
         id="path114"
         d="m 248.976,144.484 30,0 0,24.989 -30,0 0,-24.989 z" /></clipPath><clipPath
       id="clipPath124"
       clipPathUnits="userSpaceOnUse"><path
         id="path126"
         d="m 294.494,106.001 21,0 0,17 -21,0 0,-17 z" /></clipPath><clipPath
       id="clipPath136"
       clipPathUnits="userSpaceOnUse"><path
         id="path138"
         d="m 185.556,17.337 19,0 0,16.999 -19,0 0,-16.999 z" /></clipPath><clipPath
       id="clipPath148"
       clipPathUnits="userSpaceOnUse"><path
         id="path150"
         d="m 463.267,91.394 17,0 0,23.999 -17,0 0,-23.999 z" /></clipPath><clipPath
       id="clipPath160"
       clipPathUnits="userSpaceOnUse"><path
         id="path162"
         d="m 263.886,253.235 17,0 0,17 -17,0 0,-17 z" /></clipPath></defs><g
     transform="matrix(1.25,0,0,-1.25,0,350.695)"
     id="g10"><g
       transform="translate(290.8862,104.2982)"
       id="g12"><path
         id="path14"
         style="fill:none;stroke:#231f20;stroke-width:1;stroke-linecap:butt;stroke-linejoin:miter;stroke-miterlimit:10;stroke-dasharray:none;stroke-opacity:1"
         d="M 0,0 154.239,0" /></g><g
       id="g16"><g
         clip-path="url(#clipPath20)"
         id="g18"><g
           transform="translate(451.1602,104.2982)"
           id="g24"><path
             id="path26"
             style="fill:#231f20;fill-opacity:1;fill-rule:nonzero;stroke:none"
             d="M 0,0 C -2.84,-1.054 -6.363,-2.852 -8.547,-4.756 L -6.827,0 -8.547,4.755 C -6.363,2.851 -2.84,1.053 0,0" /></g><g
           transform="translate(215.5107,29.7689)"
           id="g28"><path
             id="path30"
             style="fill:none;stroke:#231f20;stroke-width:1;stroke-linecap:butt;stroke-linejoin:miter;stroke-miterlimit:10;stroke-dasharray:none;stroke-opacity:1"
             d="M 0,0 75.064,75.064" /></g><g
           transform="translate(211.2432,25.5013)"
           id="g32"><path
             id="path34"
             style="fill:#231f20;fill-opacity:1;fill-rule:nonzero;stroke:none"
             d="M 0,0 C 2.753,1.263 6.516,2.483 9.407,2.681 L 4.828,4.828 2.682,9.406 C 2.484,6.515 1.264,2.752 0,0" /></g><g
           transform="translate(290.7549,103.3939)"
           id="g36"><path
             id="path38"
             style="fill:none;stroke:#231f20;stroke-width:1;stroke-linecap:butt;stroke-linejoin:miter;stroke-miterlimit:10;stroke-dasharray:none;stroke-opacity:1"
             d="M 0,0 0,154.239" /></g><g
           transform="translate(290.7549,263.6678)"
           id="g40"><path
             id="path42"
             style="fill:#231f20;fill-opacity:1;fill-rule:nonzero;stroke:none"
             d="M 0,0 C 1.054,-2.84 2.852,-6.363 4.756,-8.547 L 0,-6.827 -4.755,-8.547 C -2.851,-6.363 -1.053,-2.84 0,0" /></g><g
           transform="translate(290.876,201.7655)"
           id="g44"><path
             id="path46"
             style="fill:none;stroke:#50ade5;stroke-width:2;stroke-linecap:butt;stroke-linejoin:miter;stroke-miterlimit:10;stroke-dasharray:none;stroke-opacity:1"
             d="M 0,0 -0.121,-141.43" /></g><g
           transform="translate(290.8862,213.8358)"
           id="g48"><path
             id="path50"
             style="fill:#50ade5;fill-opacity:1;fill-rule:nonzero;stroke:none"
             d="m 0,0 c -2.112,-5.678 -5.714,-12.722 -9.526,-17.086 l 9.514,3.432 9.507,-3.449 C 5.69,-12.731 2.101,-5.681 0,0" /></g><g
           transform="translate(302.6084,210.9574)"
           id="g52"><path
             id="path54"
             style="fill:none;stroke:#3871c1;stroke-width:2;stroke-linecap:butt;stroke-linejoin:miter;stroke-miterlimit:10;stroke-dasharray:none;stroke-opacity:1"
             d="M 0,0 51.392,-12.622" /></g><g
           transform="translate(290.8862,213.8358)"
           id="g56"><path
             id="path58"
             style="fill:#3871c1;fill-opacity:1;fill-rule:nonzero;stroke:none"
             d="M 0,0 C 5.013,-3.401 11,-8.574 14.333,-13.314 L 13.26,-3.256 18.87,5.158 C 13.719,2.501 6.018,0.69 0,0" /></g><g
           transform="translate(280.3882,54.8177)"
           id="g60"><path
             id="path62"
             style="fill:none;stroke:#3871c1;stroke-width:2;stroke-linecap:butt;stroke-linejoin:miter;stroke-miterlimit:10;stroke-dasharray:none;stroke-opacity:1"
             d="M 0,0 -38.566,-21.884" /></g><g
           transform="translate(290.8862,60.7747)"
           id="g64"><path
             id="path66"
             style="fill:#3871c1;fill-opacity:1;fill-rule:nonzero;stroke:none"
             d="m 0,0 c -5.98,-0.97 -13.883,-1.32 -19.562,-0.164 l 7.687,-6.575 1.701,-9.969 C -8.255,-11.239 -3.901,-4.634 0,0" /></g><g
           transform="translate(290.7617,132.9598)"
           id="g68"><path
             id="path70"
             style="fill:none;stroke:#37ab9c;stroke-width:2;stroke-linecap:butt;stroke-linejoin:miter;stroke-miterlimit:10;stroke-dasharray:none;stroke-opacity:1"
             d="M 0,0 -0.024,-27.959" /></g><g
           transform="translate(290.772,145.0301)"
           id="g72"><path
             id="path74"
             style="fill:#37ab9c;fill-opacity:1;fill-rule:nonzero;stroke:none"
             d="m 0,0 c -2.112,-5.678 -5.714,-12.722 -9.526,-17.086 l 9.514,3.432 9.508,-3.449 C 5.69,-12.731 2.101,-5.682 0,0" /></g></g></g><g
       id="g76"><g
         clip-path="url(#clipPath80)"
         id="g78"><g
           transform="translate(323.7002,230.6409)"
           id="g84"><path
             id="path86"
             style="fill:#3871c1;fill-opacity:1;fill-rule:nonzero;stroke:none"
             d="m 0,0 0,4.074 -5.965,-0.293 0,-1.677 c 2.21,0 2.477,0 2.477,-1.412 l 0,-11.103 -2.477,0 0,-1.678 c 1.251,0.027 2.876,0.107 4.527,0.107 1.358,0 3.648,0 4.953,-0.107 l 0,1.678 -3.116,0 0,6.284 c 0,2.529 0.878,6.896 4.473,6.896 C 4.846,2.743 4.207,2.157 4.207,1.119 c 0,-1.465 1.145,-2.184 2.184,-2.184 1.038,0 2.182,0.746 2.182,2.184 0,1.917 -1.943,2.955 -3.807,2.955 C 2.263,4.074 0.825,2.263 0,0" /></g><g
           transform="translate(334.9102,230.2684)"
           id="g88"><path
             id="path90"
             style="fill:#3871c1;fill-opacity:1;fill-rule:nonzero;stroke:none"
             d="m 0,0 0,-0.906 0.586,0 c 1.943,0 1.997,-0.239 1.997,-1.118 l 0,-13.074 c 0,-0.852 -0.054,-1.118 -1.997,-1.118 l -0.586,0 0,-0.906 10.624,0 c 3.542,0 6.124,2.21 6.124,4.58 0,2.184 -2.21,4.048 -5.271,4.367 2.449,0.453 4.5,1.97 4.5,3.914 C 15.977,-1.997 13.367,0 9.879,0 L 0,0 Z m 4.793,-7.882 0,5.991 c 0,0.799 0.026,0.985 1.198,0.985 l 3.701,0 c 2.477,0 3.782,-1.783 3.782,-3.355 0,-1.783 -1.678,-3.621 -4.554,-3.621 l -4.127,0 z m 1.198,-8.334 c -1.172,0 -1.198,0.186 -1.198,0.985 l 0,6.657 5.325,0 c 2.663,0 4.048,-2.157 4.048,-3.914 0,-1.838 -1.651,-3.728 -4.421,-3.728 l -3.754,0" /></g></g></g><g
       id="g92"><g
         clip-path="url(#clipPath96)"
         id="g94"><g
           transform="translate(260.3833,32.6292)"
           id="g100"><path
             id="path102"
             style="fill:#3871c1;fill-opacity:1;fill-rule:nonzero;stroke:none"
             d="m 0,0 0,4.074 -5.964,-0.293 0,-1.677 c 2.236,0 2.476,0 2.476,-1.412 l 0,-11.103 -2.476,0 0,-1.678 c 1.251,0.027 2.875,0.107 4.526,0.107 1.358,0 3.648,0 4.953,-0.107 l 0,1.678 -3.116,0 0,6.284 c 0,2.529 0.879,6.897 4.474,6.897 C 4.846,2.743 4.207,2.157 4.207,1.119 c 0,-1.465 1.145,-2.184 2.184,-2.184 1.038,0 2.183,0.746 2.183,2.184 0,1.917 -1.944,2.955 -3.808,2.955 C 2.263,4.074 0.826,2.264 0,0" /></g><g
           transform="translate(281.3389,32.4427)"
           id="g104"><path
             id="path106"
             style="fill:#3871c1;fill-opacity:1;fill-rule:nonzero;stroke:none"
             d="M 0,0 C -0.16,0.399 -0.213,0.56 -0.692,0.56 -1.171,0.56 -1.251,0.399 -1.411,0 l -5.778,-14.671 c -0.267,-0.64 -0.692,-1.731 -2.929,-1.731 l 0,-0.906 c 0.852,0.08 1.731,0.107 2.583,0.107 0.985,0 2.849,-0.107 3.009,-0.107 l 0,0.906 c -1.119,0 -1.811,0.506 -1.811,1.198 0,0.213 0.026,0.266 0.133,0.506 l 1.198,3.089 7.11,0 1.464,-3.675 c 0.054,-0.107 0.107,-0.293 0.107,-0.426 0,-0.692 -1.332,-0.692 -2.024,-0.692 l 0,-0.906 c 1.252,0.054 2.849,0.107 3.728,0.107 1.198,0 3.062,-0.08 3.355,-0.107 l 0,0.906 -0.506,0 c -1.677,0 -1.864,0.239 -2.13,0.958 L 0,0 Z m -1.464,-2.556 3.222,-8.148 -6.418,0 3.196,8.148" /></g></g></g><g
       id="g108"><g
         clip-path="url(#clipPath112)"
         id="g110"><g
           transform="translate(258.2427,157.8631)"
           id="g116"><path
             id="path118"
             style="fill:#50ade5;fill-opacity:1;fill-rule:nonzero;stroke:none"
             d="m 0,0 0,9.958 4.233,0 c 5.779,0 5.859,-2.795 5.859,-4.979 C 10.092,2.956 10.092,0 4.154,0 L 0,0 Z m 9.586,-0.772 c 4.154,1.091 5.991,3.408 5.991,5.778 0,3.648 -3.941,6.657 -10.704,6.657 l -13.634,0 0,-1.705 3.862,0 0,-21.248 -3.862,0 0,-1.678 c 1.279,0.107 4.82,0.107 6.311,0.107 1.518,0 5.033,0 6.337,-0.107 l 0,1.678 -3.887,0 0,9.985 4.207,0 c 0.506,0 2.077,0 3.195,-1.225 1.145,-1.251 1.145,-1.944 1.145,-4.553 0,-2.37 0,-4.127 2.503,-5.352 1.598,-0.799 3.808,-0.932 5.299,-0.932 3.835,0 4.287,3.222 4.287,3.807 0,0.773 -0.479,0.773 -0.852,0.773 -0.745,0 -0.799,-0.346 -0.826,-0.826 -0.186,-1.677 -1.224,-2.476 -2.29,-2.476 -2.156,0 -2.476,2.556 -2.662,4.074 -0.08,0.399 -0.373,2.876 -0.4,3.036 -0.505,2.529 -2.476,3.647 -4.02,4.207" /></g></g></g><g
       id="g120"><g
         clip-path="url(#clipPath124)"
         id="g122"><g
           transform="translate(297.0767,119.3949)"
           id="g128"><path
             id="path130"
             style="fill:#37ab9c;fill-opacity:1;fill-rule:nonzero;stroke:none"
             d="m 0,0 0,-11.104 -2.476,0 0,-1.677 c 1.012,0.027 3.168,0.106 4.526,0.106 1.411,0 3.515,-0.079 4.527,-0.106 l 0,1.677 -2.476,0 0,7.509 c 0,3.915 3.089,5.672 5.352,5.672 1.225,0 1.97,-0.745 1.97,-3.488 l 0,-9.693 -2.476,0 0,-1.677 c 1.011,0.027 3.169,0.106 4.527,0.106 1.411,0 3.515,-0.079 4.526,-0.106 l 0,1.677 -2.476,0 0,9.293 c 0,3.782 -1.943,5.166 -5.538,5.166 -3.436,0 -5.353,-2.023 -6.284,-3.861 l 0,3.861 -6.178,-0.266 0,-1.704 C -0.24,1.385 0,1.385 0,0" /></g></g></g><g
       id="g132"><g
         clip-path="url(#clipPath136)"
         id="g134"><g
           transform="translate(196.6592,28.786)"
           id="g140"><path
             id="path142"
             style="fill:#231f20;fill-opacity:1;fill-rule:nonzero;stroke:none"
             d="m 0,0 c 0.213,0.932 1.039,4.234 3.542,4.234 0.186,0 1.038,0 1.81,-0.48 C 4.34,3.595 3.622,2.689 3.622,1.837 c 0,-0.586 0.399,-1.278 1.357,-1.278 0.799,0 1.944,0.666 1.944,2.104 0,1.864 -2.13,2.37 -3.328,2.37 -2.104,0 -3.355,-1.917 -3.782,-2.743 -0.905,2.37 -2.849,2.743 -3.887,2.743 -3.728,0 -5.778,-4.634 -5.778,-5.539 0,-0.372 0.373,-0.372 0.426,-0.372 0.293,0 0.399,0.079 0.479,0.399 1.225,3.808 3.595,4.713 4.82,4.713 0.666,0 1.917,-0.319 1.917,-2.397 0,-1.118 -0.612,-3.541 -1.917,-8.547 -0.586,-2.237 -1.837,-3.754 -3.435,-3.754 -0.213,0 -1.039,0 -1.784,0.479 0.905,0.186 1.678,0.932 1.678,1.943 0,0.959 -0.773,1.252 -1.306,1.252 -1.091,0 -1.997,-0.932 -1.997,-2.077 0,-1.651 1.811,-2.37 3.382,-2.37 2.37,0 3.675,2.503 3.781,2.716 0.426,-1.331 1.704,-2.716 3.861,-2.716 3.701,0 5.752,4.633 5.752,5.512 0,0.373 -0.32,0.373 -0.426,0.373 -0.32,0 -0.4,-0.133 -0.48,-0.399 -1.171,-3.835 -3.621,-4.713 -4.766,-4.713 -1.384,0 -1.97,1.171 -1.97,2.369 0,0.799 0.213,1.598 0.612,3.169 L 0,0" /></g></g></g><g
       id="g144"><g
         clip-path="url(#clipPath148)"
         id="g146"><g
           transform="translate(479.7344,112.6693)"
           id="g152"><path
             id="path154"
             style="fill:#231f20;fill-opacity:1;fill-rule:nonzero;stroke:none"
             d="m 0,0 c 0.133,0.506 0.133,0.586 0.133,0.826 0,0.665 -0.506,0.985 -1.038,0.985 -0.373,0 -0.932,-0.213 -1.252,-0.772 -0.079,-0.16 -0.372,-1.279 -0.506,-1.917 -0.266,-0.933 -0.506,-1.918 -0.719,-2.876 l -1.624,-6.471 c -0.133,-0.532 -1.678,-3.062 -4.047,-3.062 -1.838,0 -2.237,1.598 -2.237,2.929 0,1.651 0.612,3.861 1.837,7.029 0.559,1.465 0.72,1.865 0.72,2.583 0,1.625 -1.146,2.956 -2.956,2.956 -3.409,0 -4.74,-5.219 -4.74,-5.539 0,-0.372 0.372,-0.372 0.426,-0.372 0.373,0 0.399,0.08 0.586,0.665 0.958,3.356 2.396,4.447 3.621,4.447 0.293,0 0.905,0 0.905,-1.145 0,-0.905 -0.373,-1.837 -0.612,-2.529 -1.437,-3.808 -2.077,-5.858 -2.077,-7.536 0,-3.195 2.264,-4.26 4.367,-4.26 1.411,0 2.636,0.612 3.621,1.598 -0.452,-1.865 -0.879,-3.622 -2.316,-5.513 -0.932,-1.224 -2.317,-2.263 -3.968,-2.263 -0.479,0 -2.103,0.107 -2.716,1.491 0.586,0 1.038,0 1.545,0.426 0.346,0.346 0.719,0.799 0.719,1.491 0,1.119 -0.985,1.252 -1.332,1.252 -0.825,0 -2.024,-0.586 -2.024,-2.343 0,-1.784 1.598,-3.116 3.808,-3.116 3.701,0 7.402,3.276 8.414,7.323 L 0,0" /></g></g></g><g
       id="g156"><g
         clip-path="url(#clipPath160)"
         id="g158"><g
           transform="translate(267.9604,256.8031)"
           id="g164"><path
             id="path166"
             style="fill:#231f20;fill-opacity:1;fill-rule:nonzero;stroke:none"
             d="m 0,0 c 1.943,2.104 2.982,2.982 4.287,4.101 0,0.053 2.21,1.943 3.515,3.248 3.408,3.329 4.207,5.059 4.207,5.193 0,0.372 -0.346,0.372 -0.4,0.372 -0.266,0 -0.373,-0.08 -0.559,-0.399 -1.065,-1.731 -1.81,-2.29 -2.689,-2.29 -0.852,0 -1.278,0.532 -1.811,1.145 -0.692,0.825 -1.304,1.544 -2.503,1.544 -2.689,0 -4.34,-3.355 -4.34,-4.101 0,-0.186 0.106,-0.399 0.426,-0.399 0.346,0 0.399,0.187 0.479,0.399 0.693,1.651 2.769,1.678 3.062,1.678 0.746,0 1.438,-0.24 2.263,-0.533 C 7.375,9.426 7.749,9.426 8.68,9.426 7.402,7.882 4.393,5.299 3.701,4.713 L 0.479,1.704 c -2.45,-2.396 -3.701,-4.447 -3.701,-4.713 0,-0.346 0.346,-0.346 0.426,-0.346 0.293,0 0.346,0.053 0.559,0.453 0.852,1.251 1.917,2.236 3.062,2.236 0.826,0 1.198,-0.319 2.077,-1.358 0.613,-0.772 1.278,-1.331 2.317,-1.331 3.541,0 5.618,4.553 5.618,5.512 0,0.186 -0.133,0.373 -0.426,0.373 C 10.092,2.53 10.012,2.316 9.905,2.05 9.08,-0.266 6.79,-0.959 5.618,-0.959 c -0.719,0 -1.385,0.213 -2.13,0.48 C 2.263,-0.027 1.73,0.133 0.985,0.133 0.905,0.133 0.319,0.133 0,0" /></g></g></g></g></svg>