<?xml version="1.0" encoding="UTF-8" standalone="no"?>
<svg
   xmlns:dc="http://purl.org/dc/elements/1.1/"
   xmlns:cc="http://creativecommons.org/ns#"
   xmlns:rdf="http://www.w3.org/1999/02/22-rdf-syntax-ns#"
   xmlns:svg="http://www.w3.org/2000/svg"
   xmlns="http://www.w3.org/2000/svg"
   viewBox="0 0 381.08124 262.97876"
   height="262.97876"
   width="381.08124"
   xml:space="preserve"
   version="1.1"
   id="svg2"><metadata
     id="metadata8"><rdf:RDF><cc:Work
         rdf:about=""><dc:format>image/svg+xml</dc:format><dc:type
           rdf:resource="http://purl.org/dc/dcmitype/StillImage" /></cc:Work></rdf:RDF></metadata><defs
     id="defs6"><clipPath
       id="clipPath16"
       clipPathUnits="userSpaceOnUse"><path
         id="path18"
         d="m 0,210.383 304.865,0 L 304.865,0 0,0 0,210.383 Z" /></clipPath><clipPath
       id="clipPath64"
       clipPathUnits="userSpaceOnUse"><path
         id="path66"
         d="m 91.939,92.135 13.999,0 0,11.5 -13.999,0 0,-11.5 z" /></clipPath><clipPath
       id="clipPath80"
       clipPathUnits="userSpaceOnUse"><path
         id="path82"
         d="m 233.05,92.135 14.501,0 0,11.5 -14.501,0 0,-11.5 z" /></clipPath><clipPath
       id="clipPath96"
       clipPathUnits="userSpaceOnUse"><path
         id="path98"
         d="m 0,210.383 304.865,0 L 304.865,0 0,0 0,210.383 Z" /></clipPath><clipPath
       id="clipPath112"
       clipPathUnits="userSpaceOnUse"><path
         id="path114"
         d="m 147.554,154.633 23,0 0,12 -23,0 0,-12 z" /></clipPath></defs><g
     transform="matrix(1.25,0,0,-1.25,0,262.97875)"
     id="g10"><g
       id="g12"><g
         clip-path="url(#clipPath16)"
         id="g14"><g
           transform="translate(196.2288,43.0151)"
           id="g20"><path
             id="path22"
             style="fill:#231f20;fill-opacity:1;fill-rule:nonzero;stroke:none"
             d="m 0,0 c 0,-8.679 -7.035,-15.714 -15.714,-15.714 -8.679,0 -15.714,7.035 -15.714,15.714 0,8.679 7.035,15.714 15.714,15.714 C -7.035,15.714 0,8.679 0,0" /></g><g
           transform="translate(196.2288,43.0151)"
           id="g24"><path
             id="path26"
             style="fill:none;stroke:#231f20;stroke-width:1;stroke-linecap:butt;stroke-linejoin:miter;stroke-miterlimit:10;stroke-dasharray:none;stroke-opacity:1"
             d="m 0,0 c 0,-8.679 -7.035,-15.714 -15.714,-15.714 -8.679,0 -15.714,7.035 -15.714,15.714 0,8.679 7.035,15.714 15.714,15.714 C -7.035,15.714 0,8.679 0,0 Z" /></g><g
           transform="translate(40.5145,170.4931)"
           id="g28"><path
             id="path30"
             style="fill:#ef2e32;fill-opacity:1;fill-rule:nonzero;stroke:none"
             d="m 0,0 c 0,-4.339 -3.518,-7.857 -7.857,-7.857 -4.339,0 -7.857,3.518 -7.857,7.857 0,4.339 3.518,7.857 7.857,7.857 C -3.518,7.857 0,4.339 0,0" /></g><g
           transform="translate(270.3138,170.4931)"
           id="g32"><path
             id="path34"
             style="fill:#ef2e32;fill-opacity:1;fill-rule:nonzero;stroke:none"
             d="m 0,0 c 0,-4.339 -3.518,-7.857 -7.857,-7.857 -4.34,0 -7.858,3.518 -7.858,7.857 0,4.339 3.518,7.857 7.858,7.857 C -3.518,7.857 0,4.339 0,0" /></g><g
           transform="translate(37.2283,166.5522)"
           id="g36"><path
             id="path38"
             style="fill:none;stroke:#231f20;stroke-width:1;stroke-linecap:butt;stroke-linejoin:miter;stroke-miterlimit:10;stroke-dasharray:none;stroke-opacity:1"
             d="M 0,0 143.286,-123.537" /></g><g
           transform="translate(32.6575,170.4931)"
           id="g40"><path
             id="path42"
             style="fill:#231f20;fill-opacity:1;fill-rule:nonzero;stroke:none"
             d="m 0,0 c 1.463,-2.652 2.958,-6.314 3.368,-9.183 l 1.803,4.725 4.408,2.478 C 6.681,-1.996 2.838,-1.057 0,0" /></g><g
           transform="translate(180.5145,43.0151)"
           id="g44"><path
             id="path46"
             style="fill:none;stroke:#231f20;stroke-width:1;stroke-linecap:butt;stroke-linejoin:miter;stroke-miterlimit:10;stroke-dasharray:none;stroke-opacity:1"
             d="M 0,0 78.678,122.401" /></g><g
           transform="translate(262.4564,170.4931)"
           id="g48"><path
             id="path50"
             style="fill:#231f20;fill-opacity:1;fill-rule:nonzero;stroke:none"
             d="m 0,0 c -0.649,-2.958 -1.042,-6.895 -0.621,-9.762 l -3.07,4.019 -4.93,1.124 c 2.782,0.807 6.2,2.8 8.621,4.619" /></g></g></g><text
       id="text52"
       style="font-variant:normal;font-weight:normal;font-stretch:normal;font-size:12px;font-family:'Myriad Pro';-inkscape-font-specification:MyriadPro-Regular;writing-mode:lr-tb;fill:#231f20;fill-opacity:1;fill-rule:nonzero;stroke:none"
       transform="matrix(1,0,0,-1,204.8008,43.0146)"><tspan
         id="tspan54"
         y="0"
         x="0 10.008 15.792 20.544001 25.296 27.84">mass M</tspan><tspan
         id="tspan56"
         y="14.4"
         x="0 5.3759999 12.036 17.82 21.648001 28.356001 34.368 36.911999 43.403999">charge Ze</tspan><tspan
         id="tspan58"
         y="-139.476"
         x="-174.504 -168.492 -165.564 53.495998 59.507999 63.240002">e1-e2-</tspan></text>
<g
       id="g60"><g
         clip-path="url(#clipPath64)"
         id="g62"><g
           transform="translate(95.1346,101.2812)"
           id="g68"><path
             id="path70"
             style="fill:#231f20;fill-opacity:1;fill-rule:nonzero;stroke:none"
             d="m 0,0 0,2.037 -2.982,-0.146 0,-0.839 c 1.118,0 1.238,0 1.238,-0.706 l 0,-5.552 -1.238,0 0,-0.838 c 0.626,0.013 1.438,0.053 2.263,0.053 0.679,0 1.837,0 2.476,-0.053 l 0,0.838 -1.557,0 0,3.143 c 0,1.264 0.452,3.448 2.237,3.448 C 2.423,1.372 2.104,1.079 2.104,0.56 c 0,-0.733 0.572,-1.092 1.091,-1.092 0.519,0 1.092,0.372 1.092,1.092 0,0.958 -0.958,1.477 -1.904,1.477 C 1.132,2.037 0.413,1.132 0,0" /></g><g
           transform="translate(104.1346,100.5092)"
           id="g72"><path
             id="path74"
             style="fill:#231f20;fill-opacity:1;fill-rule:nonzero;stroke:none"
             d="m 0,0 c 0,0.333 -0.026,0.346 -0.373,0.346 -0.798,-0.785 -1.943,-0.799 -2.463,-0.799 l 0,-0.452 c 0.307,0 1.132,0 1.824,0.346 l 0,-6.391 c 0,-0.412 0,-0.572 -1.251,-0.572 l -0.48,0 0,-0.453 c 0.227,0.014 1.771,0.053 2.237,0.053 0.386,0 1.957,-0.039 2.237,-0.053 l 0,0.453 -0.48,0 C 0,-7.522 0,-7.362 0,-6.95 L 0,0" /></g></g></g><g
       id="g76"><g
         clip-path="url(#clipPath80)"
         id="g78"><g
           transform="translate(236.2454,101.2812)"
           id="g84"><path
             id="path86"
             style="fill:#231f20;fill-opacity:1;fill-rule:nonzero;stroke:none"
             d="m 0,0 0,2.037 -2.981,-0.146 0,-0.839 c 1.118,0 1.238,0 1.238,-0.706 l 0,-5.552 -1.238,0 0,-0.838 c 0.625,0.013 1.437,0.053 2.262,0.053 0.68,0 1.838,0 2.477,-0.053 l 0,0.838 -1.558,0 0,3.143 c 0,1.264 0.453,3.448 2.237,3.448 C 2.424,1.372 2.104,1.079 2.104,0.56 c 0,-0.733 0.573,-1.092 1.091,-1.092 0.52,0 1.092,0.372 1.092,1.092 0,0.958 -0.958,1.477 -1.903,1.477 C 1.132,2.037 0.413,1.132 0,0" /></g><g
           transform="translate(247.3763,94.811)"
           id="g88"><path
             id="path90"
             style="fill:#231f20;fill-opacity:1;fill-rule:nonzero;stroke:none"
             d="m 0,0 -0.426,0 c -0.04,-0.266 -0.16,-1.012 -0.32,-1.132 -0.107,-0.079 -1.065,-0.079 -1.237,-0.079 l -2.318,0 c 1.319,1.171 1.758,1.517 2.517,2.103 C -0.865,1.638 0,2.41 0,3.595 c 0,1.517 -1.331,2.449 -2.929,2.449 -1.558,0 -2.61,-1.091 -2.61,-2.236 0,-0.64 0.546,-0.706 0.666,-0.706 0.307,0 0.666,0.213 0.666,0.666 0,0.226 -0.094,0.666 -0.746,0.666 0.399,0.878 1.252,1.158 1.838,1.158 1.251,0 1.903,-0.972 1.903,-1.997 0,-1.079 -0.771,-1.944 -1.184,-2.397 l -3.009,-2.982 c -0.134,-0.12 -0.134,-0.147 -0.134,-0.493 l 5.166,0 L 0,0" /></g></g></g><g
       id="g92"><g
         clip-path="url(#clipPath96)"
         id="g94"><g
           transform="translate(32.6575,170.4931)"
           id="g100"><path
             id="path102"
             style="fill:none;stroke:#231f20;stroke-width:1;stroke-linecap:butt;stroke-linejoin:miter;stroke-miterlimit:10;stroke-dasharray:none;stroke-opacity:1"
             d="M 0,0 223.764,0" /></g><g
           transform="translate(262.4564,170.4931)"
           id="g104"><path
             id="path106"
             style="fill:#231f20;fill-opacity:1;fill-rule:nonzero;stroke:none"
             d="M 0,0 C -2.84,-1.054 -6.363,-2.852 -8.547,-4.756 L -6.827,0 -8.547,4.755 C -6.363,2.851 -2.84,1.053 0,0" /></g></g></g><g
       id="g108"><g
         clip-path="url(#clipPath112)"
         id="g110"><g
           transform="translate(151.1756,164.2724)"
           id="g116"><path
             id="path118"
             style="fill:#231f20;fill-opacity:1;fill-rule:nonzero;stroke:none"
             d="m 0,0 0,1.997 -2.956,-0.133 0,-0.852 c 1.092,0 1.226,0 1.226,-0.693 l 0,-5.511 -1.226,0 0,-0.852 c 0.613,0.026 1.438,0.053 2.237,0.053 0.693,0 1.838,0 2.477,-0.053 l 0,0.852 -1.545,0 0,3.115 c 0,1.251 0.426,3.435 2.237,3.435 -0.027,0 -0.346,-0.293 -0.346,-0.826 0,-0.719 0.559,-1.091 1.091,-1.091 0.507,0 1.092,0.372 1.092,1.091 0,0.959 -0.958,1.465 -1.891,1.465 C 1.145,1.997 0.426,1.118 0,0" /></g><g
           transform="translate(160.2557,163.4999)"
           id="g120"><path
             id="path122"
             style="fill:#231f20;fill-opacity:1;fill-rule:nonzero;stroke:none"
             d="m 0,0 c 0,0.346 -0.026,0.346 -0.373,0.346 -0.798,-0.772 -1.943,-0.799 -2.449,-0.799 l 0,-0.452 c 0.293,0 1.118,0 1.81,0.346 l 0,-6.391 c 0,-0.399 0,-0.559 -1.251,-0.559 l -0.48,0 0,-0.452 c 0.214,0 1.758,0.053 2.237,0.053 0.373,0 1.944,-0.053 2.237,-0.053 l 0,0.452 -0.48,0 C 0,-7.509 0,-7.349 0,-6.95 L 0,0" /></g><g
           transform="translate(169.5755,157.8017)"
           id="g124"><path
             id="path126"
             style="fill:#231f20;fill-opacity:1;fill-rule:nonzero;stroke:none"
             d="m 0,0 -0.426,0 c -0.027,-0.266 -0.16,-1.012 -0.32,-1.118 -0.106,-0.08 -1.065,-0.08 -1.251,-0.08 l -2.29,0 C -2.982,-0.026 -2.53,0.32 -1.784,0.905 -0.852,1.651 0,2.423 0,3.622 c 0,1.491 -1.332,2.422 -2.929,2.422 -1.545,0 -2.61,-1.091 -2.61,-2.236 0,-0.639 0.533,-0.692 0.666,-0.692 0.32,0 0.666,0.213 0.666,0.665 0,0.213 -0.08,0.666 -0.746,0.666 0.4,0.879 1.252,1.145 1.837,1.145 1.252,0 1.918,-0.959 1.918,-1.97 0,-1.092 -0.799,-1.971 -1.198,-2.424 l -3.009,-2.982 c -0.134,-0.107 -0.134,-0.133 -0.134,-0.479 l 5.166,0 L 0,0" /></g></g></g></g></svg>